<svg width="303" height="448" viewBox="0 0 303 448" fill="none" xmlns="http://www.w3.org/2000/svg">
<path d="M0 261.899C3.7626 251.488 7.5252 241.077 11.2878 230.666C18.5917 210.288 25.6742 190.13 32.9781 169.752C33.8634 167.094 34.0847 164.214 34.0847 161.556C34.0847 108.838 34.0847 56.1191 34.0847 3.62206C34.0847 2.29302 33.4207 0.520973 34.7487 0.0779597C35.8554 -0.365053 36.7407 1.18549 37.4047 2.07152C60.8656 25.5512 84.3265 49.0309 107.787 72.5106C109.558 74.2826 111.107 74.9471 113.542 74.9471C138.995 74.9471 164.448 74.9471 189.901 74.9471C192.114 74.9471 193.663 74.2826 195.213 72.7321C218.452 49.2524 241.913 25.9942 265.374 2.51453C265.817 2.07152 266.481 1.407 266.923 0.963985C267.366 0.520973 267.809 0.0779597 268.251 0.0779597C269.137 0.299466 268.915 1.18549 268.915 1.85001C268.915 7.83068 268.915 14.0329 268.915 20.0135C268.915 67.8589 268.915 115.926 268.915 163.771C268.915 165.322 269.137 166.872 269.801 168.423C280.646 198.769 291.491 229.116 302.336 259.462C303.443 262.342 303 264.335 301.008 266.772C273.563 299.998 246.118 333.224 218.673 366.228C196.983 392.366 175.514 418.725 153.824 444.863C153.16 445.527 152.496 446.192 152.053 447.078C151.611 447.078 151.389 447.078 150.947 447.078C150.504 446.635 150.283 445.97 149.84 445.527C133.019 425.149 116.419 404.77 99.5982 384.613C72.3747 351.609 45.3725 318.826 18.149 285.821C12.1731 278.512 6.19722 271.423 0 264.114C0 263.449 0 262.785 0 261.899ZM147.627 170.195C147.627 156.462 147.627 142.507 147.627 128.773C147.627 126.558 146.963 125.008 145.413 123.457C133.683 111.939 122.174 100.42 110.665 88.6805C108.894 86.9085 108.009 86.687 106.238 88.902C96.2783 102.414 86.3185 115.926 76.1373 129.216C74.8093 130.988 74.588 132.539 75.4733 134.532C82.1132 150.481 88.7531 166.429 95.1717 182.378C96.057 184.593 97.3849 185.7 99.5982 186.365C107.345 188.358 114.87 190.573 122.617 192.346C125.051 193.01 125.715 194.339 125.936 196.333C126.158 199.877 126.822 203.199 126.822 206.522C127.043 208.737 127.928 209.845 130.142 210.288C134.79 211.395 139.438 212.724 144.085 214.053C147.184 214.939 147.405 214.718 147.405 211.395C147.627 197.883 147.627 183.928 147.627 170.195ZM155.816 170.416C156.037 183.928 156.037 197.662 156.037 211.174C156.037 215.161 156.259 215.161 160.021 214.053C164.448 212.946 168.874 211.395 173.301 210.509C175.514 210.066 176.4 208.737 176.621 206.743C177.064 203.199 177.506 199.655 177.728 196.111C177.949 193.896 178.834 192.789 180.826 192.346C188.573 190.352 196.319 188.137 204.066 186.143C205.836 185.7 207.164 185.257 208.05 183.264C214.69 166.651 221.551 150.259 228.412 133.646C229.076 132.317 228.855 131.21 227.969 130.102C225.535 127.001 223.321 123.9 220.887 120.799C212.919 110.167 204.951 99.5343 196.983 88.6805C195.877 87.13 194.991 86.4655 193.221 88.2375C181.711 99.9774 170.202 111.496 158.472 123.014C156.48 125.008 155.816 127.223 155.816 129.881C155.816 143.393 155.816 156.905 155.816 170.416ZM146.963 424.484C147.184 424.484 147.405 424.484 147.405 424.263C147.405 423.82 147.627 423.377 147.627 422.934C147.627 399.897 147.627 376.639 147.627 353.602C147.627 351.83 146.963 350.944 145.635 350.058C138.552 345.628 131.47 341.198 124.166 336.989C122.617 336.103 121.289 334.996 120.403 333.445C111.55 316.389 102.697 299.112 93.6223 282.056C85.2118 265.886 76.8013 249.937 68.3908 233.767C67.2841 231.774 66.3988 231.552 64.6282 232.66C57.9883 236.647 51.1271 240.634 44.2659 244.4C42.4953 245.286 42.4953 246.172 43.3806 247.944C53.7831 265.664 63.9642 283.385 74.3667 301.105C93.1797 333.224 111.993 365.342 130.806 397.682C136.339 406.321 141.651 415.403 146.963 424.484ZM156.037 424.263C156.259 424.263 156.48 424.484 156.701 424.484C157.144 424.041 157.365 423.377 157.808 422.934C170.645 401.005 183.482 379.297 196.319 357.368C209.599 334.553 222.879 311.738 236.158 288.922C244.126 275.189 252.094 261.456 260.283 247.722C261.39 245.95 261.169 245.064 259.398 244.178C252.537 240.412 245.676 236.425 238.814 232.438C237.265 231.552 236.38 231.774 235.716 233.546C233.503 238.197 231.068 242.627 228.633 247.279C213.804 275.853 198.754 304.428 183.925 333.002C183.039 334.774 181.711 336.103 179.941 337.211C172.858 341.419 165.997 345.85 158.915 350.058C156.923 351.166 156.259 352.495 156.259 354.71C156.259 369.329 156.259 383.949 156.259 398.568C156.037 406.985 156.037 415.624 156.037 424.263ZM147.405 318.604C147.405 314.396 147.405 314.396 144.528 312.624C140.544 310.187 136.56 307.529 132.576 305.092C131.027 304.206 130.363 303.099 130.142 301.327C129.035 291.802 127.928 282.277 126.822 272.752C124.608 254.81 122.395 236.647 120.182 218.705C119.961 217.154 119.518 216.268 117.969 215.825C113.099 214.496 108.009 213.167 103.14 211.617C102.033 211.395 101.148 211.395 100.262 211.838C92.5157 216.49 84.9905 220.92 77.0226 225.35C74.588 226.679 74.588 227.787 75.6947 230.002C84.7692 247.058 93.6223 264.335 102.476 281.613C110.001 296.011 117.526 310.409 124.83 324.806C125.936 327.021 127.043 327.464 129.478 326.8C134.126 325.471 138.995 324.142 143.864 323.034C146.741 322.148 148.291 321.041 147.405 318.604ZM155.816 318.161C155.152 321.262 157.144 322.37 160.021 323.034C164.89 324.142 169.538 325.471 174.408 326.8C176.4 327.464 177.285 327.021 178.17 325.249C194.77 293.131 211.37 261.234 228.191 229.116C229.076 227.565 228.855 226.679 227.305 225.793C219.559 221.363 211.812 216.933 204.066 212.281C202.738 211.617 201.631 211.395 200.082 211.838C195.877 212.946 191.893 214.053 187.687 215.161C183.482 216.268 183.482 216.268 183.039 220.698C181.933 230.888 180.605 241.298 179.498 251.488C177.506 268.101 175.514 284.492 173.522 301.105C173.301 302.877 172.637 304.206 171.088 305.092C166.882 307.75 162.677 310.408 158.251 313.067C156.259 314.174 155.373 315.503 155.816 318.161ZM182.818 396.353C183.039 396.353 183.039 396.574 183.261 396.574C184.81 394.802 186.359 392.809 187.909 391.037C208.492 366.007 229.297 340.755 249.881 315.725C263.603 299.112 277.326 282.277 291.048 265.664C292.376 264.114 292.598 263.228 290.606 262.12C283.966 258.354 277.326 254.589 270.686 250.602C268.694 249.494 268.03 249.937 266.923 251.709C247.668 284.714 228.633 317.497 209.378 350.501C200.524 366.007 191.671 381.291 182.818 396.353ZM119.961 396.131C120.182 396.131 120.403 395.91 120.403 395.91C119.961 395.024 119.297 393.916 118.854 393.03C98.7129 358.475 78.3506 323.92 58.2096 289.144C50.9058 276.74 43.8232 264.335 36.5194 251.931C35.8554 250.823 35.4127 249.273 33.4207 250.38C26.3382 254.589 19.477 258.576 12.3944 262.563C11.0665 263.228 11.0665 264.114 11.9518 265.221C13.2798 266.772 14.6077 268.544 15.9357 270.094C43.8232 303.985 71.9321 337.875 100.041 371.766C106.681 379.962 113.321 388.157 119.961 396.131ZM256.963 23.5576C256.742 23.3361 256.742 23.3361 256.521 23.1146C256.078 23.5576 255.635 24.0007 255.193 24.4437C237.486 42.1642 220.001 59.8847 202.295 77.3837C200.967 78.7127 200.746 79.5988 201.852 81.3708C211.591 94.2182 221.108 107.066 230.625 119.913C230.847 120.356 231.068 121.02 232.175 120.799C240.585 88.459 248.774 55.8976 256.963 23.5576ZM46.4792 23.7791C54.6684 56.3406 63.0789 88.6805 71.4894 121.685C81.8919 107.73 91.8517 94.4397 101.812 81.1493C103.14 79.3773 102.254 78.4912 101.148 77.3837C83.6625 59.8847 66.3988 42.6072 48.9138 25.1082C48.2498 24.6652 48.0285 23.7791 46.4792 23.7791ZM67.9481 139.406C67.5055 139.849 66.8415 140.513 66.3988 140.956C59.095 149.373 52.0124 157.791 44.7085 165.986C43.8232 167.094 43.6019 167.98 44.2659 169.087C52.6764 185.036 61.0869 201.206 69.2761 217.154C70.1614 218.926 71.0468 218.926 72.8174 218.04C79.4573 214.053 86.3185 210.066 93.1797 206.3C95.393 205.193 95.393 203.864 94.5077 201.87C88.9744 188.801 83.6625 175.954 78.3506 162.885C75.4733 155.797 72.5961 148.487 69.4974 141.399C69.2761 140.956 69.0548 140.07 67.9481 139.406ZM259.841 168.201C259.841 167.094 259.177 166.429 258.513 165.765C251.652 157.791 245.012 150.038 238.15 142.064C235.273 138.741 235.273 138.741 233.724 142.728C233.503 143.393 233.281 143.836 233.06 144.5C225.092 163.771 217.124 183.042 209.156 202.313C208.271 204.307 208.492 205.193 210.484 206.3C217.124 210.066 223.985 213.832 230.625 217.819C232.839 219.148 233.724 218.705 234.831 216.49C243.02 200.763 251.209 185.036 259.398 169.309C259.398 169.087 259.619 168.644 259.841 168.201ZM260.726 43.2717C260.505 43.4932 260.505 43.7147 260.283 43.9362C253.201 72.0675 245.897 99.9774 238.814 128.109C238.372 129.659 238.814 130.767 239.7 131.874C243.02 135.64 246.34 139.406 249.66 143.393C253.201 147.38 256.742 151.367 260.726 155.797C260.726 117.919 260.726 80.7063 260.726 43.2717ZM43.1592 43.9362H42.9379C42.9379 80.9278 42.9379 117.919 42.9379 154.911C44.2659 154.689 44.7085 153.803 45.1512 153.139C50.9058 146.715 56.439 140.07 62.1936 133.646C64.4069 131.431 64.8495 129.216 63.9642 126.115C58.8736 106.401 54.0044 86.687 48.9138 67.1944C47.1432 59.2202 45.1512 51.4674 43.1592 43.9362ZM147.405 251.045C147.405 242.849 147.405 234.653 147.405 226.458C147.405 224.464 146.741 223.356 144.749 222.913C140.987 222.027 137.446 220.698 133.683 219.812C128.15 218.483 128.15 218.483 128.814 224.242C130.806 240.412 132.576 256.804 134.79 272.974C135.675 279.176 133.904 278.29 140.766 278.29C141.872 278.29 142.979 278.069 144.085 278.29C146.52 278.512 147.184 277.404 147.184 274.967C147.405 267.215 147.405 259.24 147.405 251.045ZM156.037 250.38C156.037 259.462 156.037 266.993 156.037 274.303C156.037 278.512 156.037 278.512 160.021 278.512C161.57 278.512 163.12 278.512 164.669 278.512C167.104 278.733 167.768 277.847 168.21 275.41C169.538 263.671 171.088 251.709 172.416 239.969C173.08 233.767 173.965 227.565 174.85 221.363C175.072 219.812 175.072 218.483 172.858 218.926C167.768 220.255 162.677 221.584 157.587 222.913C156.259 223.356 155.595 224.021 155.816 225.572C156.48 234.432 155.595 243.292 156.037 250.38ZM42.4953 184.15C42.2739 184.15 42.0526 184.15 41.8313 184.15C41.8313 188.358 41.8313 192.567 41.8313 196.776C41.6099 209.18 41.1673 221.806 40.9459 234.21C40.9459 235.982 41.3886 236.425 42.9379 235.318C49.1351 231.774 55.111 228.23 61.3083 224.685C62.8576 223.799 62.8576 222.913 62.1936 221.363C57.3243 212.281 52.6764 203.199 48.0285 194.118C46.2579 191.016 44.4872 187.472 42.4953 184.15ZM261.39 183.928C260.947 184.371 260.726 184.593 260.726 184.814C254.308 196.997 247.889 209.402 241.47 221.584C240.585 223.356 241.028 224.242 242.577 225.128C248.553 228.451 254.529 231.995 260.505 235.539C262.497 236.647 262.718 235.982 262.718 233.989C262.497 228.008 262.275 222.027 262.275 216.047C262.054 205.636 261.833 195.447 261.611 185.036C261.39 184.814 261.39 184.593 261.39 183.928ZM269.801 192.567C270.022 195.89 270.022 198.326 270.243 200.763C270.465 213.167 270.686 225.572 270.907 237.976C270.907 240.412 271.793 242.184 274.006 243.292C278.432 245.729 282.638 248.387 287.064 250.823C288.171 251.488 289.278 252.374 291.27 252.595C283.966 232.66 276.883 212.946 269.801 192.567ZM12.3944 252.595C13.0584 252.595 13.5011 252.595 13.7224 252.595C19.477 249.273 25.2316 245.95 31.2075 242.628C32.3141 241.963 32.5354 241.077 32.5354 239.969C32.7568 235.982 32.9781 231.774 32.9781 227.787C33.1994 221.806 32.9781 215.604 33.4207 209.623C33.8634 204.528 33.4207 199.655 33.4207 193.675C26.3382 213.61 19.477 232.881 12.3944 252.595ZM118.411 83.1429C128.15 92.8892 137.888 102.635 147.627 112.382C147.627 103.521 147.627 94.2182 147.627 84.9149C147.627 83.3644 146.741 83.1429 145.413 83.1429C142.315 83.1429 139.216 83.1429 136.118 83.1429C129.92 83.1429 123.944 83.1429 118.411 83.1429ZM185.474 83.1429C185.695 83.1429 185.474 83.1429 185.031 83.1429C176.178 83.1429 167.104 83.1429 158.251 83.1429C156.259 83.1429 155.816 84.2504 155.816 86.0225C155.816 94.4397 155.816 102.857 155.816 111.496C155.816 112.16 155.595 112.825 155.816 113.046C165.997 102.857 175.736 92.8892 185.474 83.1429ZM202.959 195.668C202.295 195.668 202.074 195.447 201.852 195.447C198.311 196.333 194.77 197.219 191.229 198.105C185.695 199.434 185.917 199.655 185.031 204.971C184.589 206.965 185.253 207.408 187.023 206.743C190.786 205.636 194.549 204.75 198.311 203.642C198.975 203.421 199.86 203.199 200.082 202.535C200.967 200.32 201.852 198.105 202.959 195.668ZM100.484 195.004C101.59 197.662 102.254 199.434 103.14 201.427C103.582 202.756 104.467 203.642 105.795 203.864C109.337 204.75 112.878 205.636 116.198 206.522C116.862 206.743 117.526 206.743 117.969 206.3C119.297 204.971 117.747 199.212 115.977 198.769C111.107 197.662 106.017 196.554 100.484 195.004Z" fill="#212121"/>
</svg>
