<svg width="634" height="251" viewBox="0 0 634 251" fill="none" xmlns="http://www.w3.org/2000/svg">
<path fill-rule="evenodd" clip-rule="evenodd" d="M520.845 25.8033H504.457V83.0832V97.5982V106.651H520.845V92.6038L524.435 88.5458L540.823 106.651H562.83L535.516 76.2158L560.176 49.0586H538.014L520.845 67.9438V64.9783V34.5436V25.8033ZM493.504 54.6773C487.261 49.891 479.769 47.4978 471.029 47.4978C463.017 47.4978 455.942 50.4112 449.803 56.2381C443.664 61.9609 440.594 69.2444 440.594 78.0887C440.594 86.8289 443.664 94.1125 449.803 99.9393C455.942 105.766 463.017 108.68 471.029 108.68C479.769 108.68 487.261 106.234 493.504 101.344L485.232 87.6093C480.966 90.8349 476.7 92.4477 472.434 92.4477C469.312 92.4477 466.399 91.6153 463.693 89.9505C459.427 87.4532 457.294 83.4993 457.294 78.0887C457.294 72.6781 459.427 68.6721 463.693 66.0709C466.399 64.406 469.312 63.5736 472.434 63.5736C476.7 63.5736 480.966 65.1864 485.232 68.412L493.504 54.6773ZM397.973 47.4978C401.095 47.4978 404.008 48.2782 406.714 49.839C409.419 51.3997 411.604 53.3767 413.269 55.7698V49.3707H429.657V78.0887V106.651H413.269V100.251C411.604 102.645 409.419 104.674 406.714 106.338C404.008 107.899 401.095 108.68 397.973 108.68C390.378 108.68 383.718 105.922 377.996 100.408C372.377 94.7888 369.568 87.3492 369.568 78.0887C369.568 68.7241 372.377 61.2845 377.996 55.7698C383.718 50.2552 390.378 47.4978 397.973 47.4978ZM400.471 63.4176C396.725 63.4176 393.447 64.8222 390.638 67.6316C387.932 70.3369 386.58 73.8226 386.58 78.0887C386.58 79.4413 386.736 80.794 387.048 82.1467C387.464 83.3953 387.932 84.5398 388.453 85.5803C389.077 86.6208 389.805 87.6093 390.638 88.5458C391.574 89.3782 392.563 90.1065 393.603 90.7308C394.644 91.3551 395.736 91.8234 396.881 92.1355C398.025 92.4477 399.222 92.6037 400.471 92.6037C404.216 92.6037 407.338 91.1991 409.835 88.3897C412.436 85.5803 413.737 82.1467 413.737 78.0887C413.737 75.3834 413.165 72.9382 412.02 70.7531C410.876 68.464 409.263 66.6952 407.182 65.4465C405.205 64.0939 402.968 63.4176 400.471 63.4176ZM311.427 25.8033H294.883V106.651H311.427V74.499H342.174V106.651H358.718V25.8033H342.174V57.9549H311.427V25.8033Z" fill="white"/>
<path fill-rule="evenodd" clip-rule="evenodd" d="M602.366 149.564C605.487 149.564 608.401 150.344 611.106 151.905C613.811 153.466 615.996 155.443 617.661 157.836V125.216H634.049V180.155V208.717H617.661V202.318C615.996 204.711 613.811 206.74 611.106 208.405C608.401 209.965 605.487 210.746 602.366 210.746C594.77 210.746 588.111 207.988 582.388 202.474C576.769 196.855 573.96 189.415 573.96 180.155C573.96 170.79 576.769 163.351 582.388 157.836C588.111 152.321 594.77 149.564 602.366 149.564ZM614.227 169.698C611.73 166.888 608.609 165.484 604.863 165.484C601.117 165.484 597.839 166.888 595.03 169.698C592.325 172.403 590.972 175.889 590.972 180.155C590.972 181.508 591.128 182.86 591.44 184.213C591.857 185.461 592.325 186.606 592.845 187.647C593.469 188.687 594.198 189.676 595.03 190.612C595.966 191.444 596.955 192.173 597.995 192.797C599.036 193.421 600.129 193.89 601.273 194.202C602.418 194.514 603.614 194.67 604.863 194.67C608.609 194.67 611.73 193.265 614.227 190.456C616.829 187.647 618.129 184.213 618.129 180.155C618.129 175.993 616.829 172.507 614.227 169.698ZM541.036 149.564C547.903 149.564 553.262 151.697 557.112 155.963C561.066 160.125 563.043 165.484 563.043 172.039V179.999V208.717H546.031V177.502C546.031 169.49 542.701 165.484 536.042 165.484C532.92 165.484 530.267 166.42 528.082 168.293C526.001 170.166 524.96 172.715 524.96 175.941V208.717H508.572V180.155V179.999V151.437H524.96V157.836C528.602 152.321 533.961 149.564 541.036 149.564ZM447.748 204.659C451.806 208.717 457.113 210.746 463.668 210.746C470.743 210.746 476.102 207.936 479.744 202.318V208.717H496.132V180.155V151.437H479.744V184.213C479.744 187.438 478.703 189.988 476.622 191.861C474.541 193.733 471.888 194.67 468.662 194.67C462.003 194.67 458.674 190.664 458.674 182.652V151.437H441.661V180.155V188.115C441.661 194.982 443.69 200.497 447.748 204.659ZM400.158 149.564C405.673 149.564 410.772 150.917 415.454 153.622C420.24 156.327 423.986 160.021 426.691 164.703C429.397 169.386 430.749 174.536 430.749 180.155C430.749 188.583 427.732 195.815 421.697 201.849C415.766 207.78 408.587 210.746 400.158 210.746C391.73 210.746 384.499 207.78 378.464 201.849C372.533 195.815 369.568 188.583 369.568 180.155C369.568 171.623 372.533 164.391 378.464 158.46C384.499 152.529 391.73 149.564 400.158 149.564ZM400.158 166.42C396.413 166.42 393.187 167.773 390.482 170.478C387.776 173.079 386.424 176.305 386.424 180.155C386.424 181.924 386.788 183.693 387.516 185.461C388.245 187.126 389.233 188.583 390.482 189.832C391.73 190.976 393.187 191.913 394.852 192.641C396.517 193.369 398.285 193.733 400.158 193.733C403.904 193.733 407.13 192.433 409.835 189.832C412.54 187.126 413.893 183.901 413.893 180.155C413.893 176.305 412.54 173.079 409.835 170.478C407.13 167.773 403.904 166.42 400.158 166.42ZM311.427 127.869H294.883V208.717H311.427V176.565H342.174V208.717H358.718V127.869H342.174V160.021H311.427V127.869Z" fill="white"/>
<circle cx="125.412" cy="125.412" r="125.412" fill="white"/>
<path d="M125.966 189.824C90.4168 189.824 61.4613 160.869 61.4613 125.32C61.4613 89.7713 90.4168 60.8158 125.966 60.8158C161.515 60.8158 190.47 89.7713 190.47 125.32C190.47 160.869 161.515 189.824 125.966 189.824ZM125.966 61.7379C90.924 61.7379 62.3835 90.2784 62.3835 125.32C62.3835 160.362 90.924 188.902 125.966 188.902C161.007 188.902 189.548 160.362 189.548 125.32C189.548 90.2784 161.007 61.7379 125.966 61.7379Z" fill="black"/>
<path d="M79.5815 134.588C80.7342 131.406 81.8869 128.225 83.0395 125.043C85.2527 118.819 87.4198 112.641 89.679 106.416C89.9557 105.586 90.0018 104.71 90.0018 103.926C90.0018 87.8347 90.0018 71.6971 90.0018 55.6517C90.0018 55.2368 89.8173 54.6835 90.1862 54.5913C90.509 54.4529 90.7856 54.914 91.0161 55.1907C98.2089 62.3834 105.356 69.5301 112.548 76.7228C113.102 77.2761 113.563 77.4606 114.3 77.4606C122.093 77.4606 129.885 77.4606 137.677 77.4606C138.369 77.4606 138.83 77.2761 139.291 76.7689C146.391 69.5762 153.584 62.4756 160.731 55.329C160.869 55.1907 161.053 55.0062 161.192 54.8679C161.33 54.7296 161.468 54.5913 161.607 54.5913C161.883 54.6374 161.791 54.914 161.791 55.1445C161.791 56.9888 161.791 58.8792 161.791 60.6774C161.791 75.2935 161.791 90.0018 161.791 104.618C161.791 105.079 161.837 105.586 162.068 106.047C165.387 115.315 168.707 124.582 172.027 133.85C172.35 134.726 172.211 135.325 171.612 136.063C163.22 146.207 154.829 156.35 146.437 166.448C139.798 174.425 133.251 182.493 126.611 190.47C126.427 190.654 126.196 190.885 126.058 191.162C125.919 191.162 125.873 191.162 125.735 191.162C125.597 191.023 125.551 190.839 125.412 190.701C120.248 184.476 115.176 178.251 110.059 172.073C101.713 161.976 93.4598 151.97 85.1605 141.873C83.3162 139.66 81.518 137.492 79.6276 135.233C79.5815 135.049 79.5815 134.864 79.5815 134.588ZM124.721 106.554C124.721 102.359 124.721 98.0706 124.721 93.8748C124.721 93.1832 124.536 92.7221 124.029 92.2611C120.433 88.7569 116.929 85.2066 113.378 81.6102C112.825 81.0569 112.548 81.0108 112.041 81.6563C108.998 85.806 105.955 89.9096 102.82 93.967C102.405 94.5203 102.359 94.9814 102.635 95.5808C104.664 100.468 106.693 105.309 108.675 110.197C108.952 110.888 109.367 111.211 110.012 111.396C112.364 111.995 114.669 112.687 117.067 113.24C117.805 113.424 118.035 113.839 118.081 114.439C118.127 115.499 118.358 116.56 118.358 117.574C118.404 118.266 118.681 118.588 119.372 118.727C120.802 119.049 122.231 119.464 123.66 119.879C124.628 120.156 124.675 120.064 124.675 119.049C124.721 115.038 124.721 110.75 124.721 106.554ZM127.21 106.647C127.257 110.796 127.257 114.992 127.257 119.096C127.257 120.294 127.303 120.294 128.455 119.972C129.793 119.649 131.176 119.142 132.513 118.911C133.204 118.773 133.481 118.358 133.527 117.758C133.666 116.698 133.804 115.591 133.85 114.531C133.896 113.839 134.173 113.517 134.818 113.378C137.17 112.779 139.567 112.087 141.919 111.488C142.472 111.35 142.887 111.211 143.118 110.612C145.146 105.54 147.267 100.514 149.342 95.4425C149.527 95.0275 149.48 94.7048 149.204 94.382C148.466 93.4137 147.774 92.4916 147.037 91.5233C144.593 88.2958 142.149 85.0222 139.706 81.7024C139.383 81.2414 139.106 81.0108 138.553 81.5641C135.049 85.1605 131.498 88.6647 127.902 92.2149C127.303 92.8143 127.072 93.506 127.072 94.3359C127.211 98.3934 127.21 102.497 127.21 106.647ZM124.536 184.292C124.582 184.292 124.675 184.292 124.675 184.245C124.675 184.107 124.721 183.969 124.721 183.83C124.721 176.776 124.721 169.675 124.721 162.621C124.721 162.068 124.536 161.791 124.121 161.561C121.954 160.223 119.787 158.84 117.574 157.549C117.113 157.273 116.698 156.95 116.421 156.489C113.701 151.279 111.027 145.976 108.214 140.766C105.632 135.833 103.05 130.945 100.514 126.012C100.192 125.412 99.9149 125.32 99.3616 125.689C97.3329 126.888 95.2119 128.133 93.1371 129.285C92.5838 129.562 92.5838 129.839 92.8604 130.346C96.0418 135.74 99.1772 141.181 102.359 146.576C108.122 156.397 113.885 166.217 119.603 176.084C121.263 178.713 122.876 181.525 124.536 184.292ZM127.303 184.199C127.349 184.199 127.441 184.245 127.487 184.245C127.625 184.107 127.672 183.923 127.81 183.784C131.729 177.099 135.648 170.459 139.567 163.728C143.625 156.765 147.682 149.803 151.74 142.795C154.183 138.599 156.627 134.403 159.117 130.207C159.44 129.654 159.394 129.378 158.84 129.147C156.719 127.994 154.644 126.796 152.523 125.551C152.062 125.274 151.786 125.366 151.555 125.873C150.864 127.303 150.126 128.64 149.388 130.069C144.87 138.783 140.259 147.544 135.694 156.258C135.418 156.812 135.003 157.226 134.495 157.549C132.328 158.84 130.207 160.177 128.087 161.468C127.487 161.791 127.257 162.206 127.257 162.898C127.257 167.37 127.257 171.843 127.257 176.315C127.303 178.943 127.303 181.571 127.303 184.199ZM124.628 151.924C124.628 150.633 124.628 150.633 123.752 150.08C122.554 149.342 121.309 148.512 120.11 147.774C119.649 147.498 119.418 147.175 119.372 146.622C119.049 143.717 118.681 140.812 118.358 137.907C117.666 132.421 117.021 126.888 116.329 121.401C116.283 120.94 116.145 120.663 115.638 120.525C114.162 120.11 112.594 119.695 111.119 119.234C110.796 119.188 110.52 119.188 110.243 119.28C107.891 120.709 105.586 122.046 103.142 123.43C102.405 123.845 102.405 124.167 102.727 124.859C105.494 130.069 108.214 135.372 110.935 140.628C113.24 145.008 115.545 149.434 117.758 153.815C118.081 154.506 118.45 154.644 119.188 154.414C120.617 153.999 122.093 153.584 123.568 153.261C124.444 152.985 124.905 152.662 124.628 151.924ZM127.21 151.786C127.026 152.754 127.625 153.077 128.502 153.261C129.977 153.584 131.406 153.999 132.882 154.414C133.481 154.598 133.758 154.46 134.034 153.953C139.106 144.132 144.178 134.403 149.342 124.582C149.619 124.121 149.527 123.845 149.065 123.568C146.714 122.231 144.316 120.848 141.965 119.418C141.55 119.234 141.227 119.142 140.766 119.28C139.475 119.603 138.276 119.972 136.985 120.294C135.694 120.617 135.694 120.617 135.556 122C135.233 125.136 134.818 128.317 134.495 131.406C133.896 136.478 133.297 141.504 132.651 146.576C132.605 147.129 132.375 147.544 131.913 147.774C130.622 148.604 129.331 149.388 127.994 150.218C127.349 150.587 127.072 150.956 127.21 151.786ZM135.464 175.669C135.51 175.669 135.51 175.716 135.602 175.716C136.063 175.162 136.57 174.563 137.031 174.01C143.348 166.356 149.711 158.656 155.982 151.002C160.177 145.93 164.373 140.766 168.569 135.694C168.984 135.233 169.03 134.957 168.431 134.634C166.402 133.481 164.373 132.328 162.344 131.13C161.745 130.807 161.514 130.945 161.192 131.452C155.29 141.55 149.48 151.555 143.579 161.653C140.904 166.402 138.184 171.105 135.464 175.669ZM116.237 175.623C116.283 175.623 116.375 175.577 116.375 175.577C116.237 175.301 116.052 174.978 115.914 174.701C109.736 164.096 103.511 153.538 97.379 142.933C95.1658 139.152 92.9988 135.372 90.7395 131.545C90.5551 131.222 90.4167 130.715 89.7712 131.084C87.6042 132.375 85.4832 133.573 83.3623 134.818C82.9473 135.003 82.9473 135.279 83.224 135.648C83.6389 136.109 84.0539 136.663 84.4228 137.124C92.9526 147.498 101.529 157.826 110.151 168.2C112.179 170.69 114.208 173.18 116.237 175.623ZM158.149 61.7379C158.103 61.6918 158.103 61.6918 158.01 61.5996C157.872 61.7379 157.734 61.8762 157.595 62.0146C152.201 67.4091 146.852 72.8498 141.412 78.1983C140.997 78.6132 140.951 78.8899 141.273 79.3971C144.27 83.3162 147.175 87.2353 150.08 91.1545C150.126 91.2928 150.218 91.4772 150.541 91.4311C153.169 81.5641 155.659 71.651 158.149 61.7379ZM93.7826 61.8301C96.2724 71.7893 98.8544 81.6563 101.436 91.7539C104.618 87.4659 107.661 83.4084 110.704 79.351C111.119 78.7977 110.842 78.521 110.52 78.1983C105.171 72.8498 99.8688 67.5475 94.5203 62.199C94.3359 62.1068 94.2437 61.8301 93.7826 61.8301ZM100.33 97.1484C100.192 97.2868 100.007 97.4712 99.8688 97.6095C97.6556 100.192 95.4886 102.774 93.2293 105.263C92.9526 105.586 92.9065 105.863 93.091 106.232C95.673 111.119 98.255 116.053 100.745 120.94C101.021 121.493 101.298 121.493 101.805 121.217C103.834 120.018 105.955 118.773 108.03 117.62C108.721 117.297 108.721 116.882 108.445 116.283C106.739 112.272 105.125 108.353 103.511 104.387C102.635 102.22 101.759 100.007 100.791 97.8401C100.745 97.6095 100.699 97.379 100.33 97.1484ZM159.025 105.955C159.025 105.632 158.84 105.402 158.61 105.217C156.489 102.774 154.46 100.422 152.385 97.9784C151.509 96.964 151.509 96.964 151.048 98.1628C151.002 98.3472 150.91 98.4856 150.864 98.7161C148.42 104.618 145.976 110.473 143.533 116.375C143.256 116.975 143.348 117.251 143.948 117.574C145.976 118.727 148.097 119.879 150.126 121.078C150.818 121.493 151.094 121.355 151.417 120.663C153.907 115.868 156.443 111.073 158.932 106.232C158.886 106.232 158.979 106.093 159.025 105.955ZM159.301 67.778C159.255 67.8241 159.255 67.9163 159.163 67.9624C156.996 76.5384 154.783 85.0683 152.616 93.6904C152.477 94.1515 152.616 94.5203 152.892 94.8431C153.907 95.9958 154.921 97.1484 155.935 98.3472C156.996 99.546 158.103 100.791 159.301 102.128C159.301 90.6012 159.301 79.2126 159.301 67.778ZM92.7682 67.9624H92.676C92.676 79.2587 92.676 90.5551 92.676 101.898C93.091 101.851 93.2293 101.575 93.3676 101.344C95.1197 99.3616 96.8257 97.3329 98.5778 95.3964C99.2694 94.7048 99.4077 94.0592 99.1311 93.091C97.5634 87.0509 96.088 81.0569 94.5203 75.063C93.967 72.6654 93.3676 70.2678 92.7682 67.9624ZM124.628 131.268C124.628 128.778 124.628 126.242 124.628 123.752C124.628 123.153 124.444 122.784 123.799 122.692C122.646 122.415 121.585 122 120.433 121.724C118.727 121.309 118.727 121.309 118.957 123.061C119.557 127.994 120.11 133.02 120.802 137.954C121.078 139.844 120.525 139.567 122.646 139.567C122.969 139.567 123.337 139.521 123.66 139.567C124.398 139.613 124.628 139.291 124.628 138.553C124.628 136.201 124.628 133.758 124.628 131.268ZM127.303 131.084C127.303 133.85 127.303 136.155 127.303 138.415C127.303 139.706 127.303 139.706 128.502 139.706C128.963 139.706 129.47 139.706 129.931 139.706C130.669 139.752 130.899 139.521 130.991 138.737C131.406 135.141 131.867 131.499 132.282 127.902C132.467 126.012 132.743 124.121 133.02 122.231C133.066 121.77 133.066 121.355 132.421 121.493C130.853 121.908 129.285 122.323 127.764 122.692C127.349 122.83 127.164 123.015 127.21 123.522C127.441 126.196 127.164 128.916 127.303 131.084ZM92.5377 110.842C92.4916 110.842 92.3994 110.842 92.3533 110.842C92.3533 112.133 92.3533 113.424 92.3533 114.715C92.3071 118.496 92.1688 122.369 92.0766 126.15C92.0766 126.703 92.2149 126.842 92.676 126.473C94.5664 125.412 96.4107 124.306 98.3011 123.245C98.7622 122.969 98.7622 122.692 98.5778 122.231C97.1023 119.464 95.673 116.698 94.2437 113.885C93.6904 112.917 93.1832 111.857 92.5377 110.842ZM159.532 110.75C159.394 110.888 159.347 110.935 159.347 111.027C157.365 114.762 155.428 118.542 153.446 122.277C153.169 122.83 153.307 123.107 153.768 123.337C155.613 124.352 157.411 125.458 159.255 126.519C159.855 126.842 159.947 126.657 159.947 126.058C159.901 124.214 159.808 122.415 159.808 120.571C159.762 117.39 159.67 114.254 159.624 111.073C159.532 111.027 159.532 110.981 159.532 110.75ZM162.068 113.424C162.114 114.439 162.114 115.176 162.206 115.914C162.252 119.695 162.344 123.476 162.391 127.303C162.391 128.04 162.667 128.594 163.359 128.916C164.696 129.654 165.987 130.484 167.37 131.222C167.693 131.406 168.062 131.683 168.661 131.775C166.402 125.643 164.235 119.649 162.068 113.424ZM83.3623 131.729C83.5467 131.729 83.685 131.729 83.7773 131.729C85.5293 130.715 87.2814 129.7 89.1257 128.686C89.4485 128.502 89.5407 128.225 89.5407 127.856C89.5868 126.657 89.679 125.366 89.679 124.121C89.7251 122.277 89.679 120.387 89.8173 118.588C89.9557 117.021 89.8173 115.545 89.8173 113.701C87.6042 119.833 85.5293 125.735 83.3623 131.729ZM115.776 79.9504C118.773 82.9473 121.724 85.8982 124.721 88.8952C124.721 86.1749 124.721 83.3623 124.721 80.5037C124.721 80.0426 124.444 79.9504 124.029 79.9504C123.061 79.9504 122.139 79.9504 121.17 79.9504C119.28 79.9504 117.482 79.9504 115.776 79.9504ZM136.294 79.9504C136.34 79.9504 136.294 79.9504 136.155 79.9504C133.435 79.9504 130.669 79.9504 127.948 79.9504C127.349 79.9504 127.21 80.2731 127.21 80.8264C127.21 83.4084 127.21 85.9904 127.21 88.6186C127.21 88.803 127.164 89.0335 127.21 89.0796C130.346 85.9904 133.297 82.9473 136.294 79.9504ZM141.642 114.347C141.458 114.347 141.365 114.3 141.319 114.3C140.259 114.577 139.152 114.854 138.092 115.13C136.386 115.545 136.478 115.591 136.201 117.251C136.063 117.851 136.248 117.989 136.801 117.805C137.954 117.482 139.106 117.205 140.259 116.836C140.443 116.79 140.72 116.698 140.812 116.514C141.043 115.776 141.319 115.084 141.642 114.347ZM110.289 114.162C110.612 114.992 110.842 115.499 111.119 116.145C111.257 116.56 111.534 116.836 111.949 116.882C113.009 117.159 114.116 117.436 115.13 117.712C115.315 117.758 115.545 117.758 115.684 117.666C116.099 117.251 115.638 115.499 115.084 115.361C113.563 114.946 111.995 114.623 110.289 114.162Z" fill="black"/>
<path fill-rule="evenodd" clip-rule="evenodd" d="M130.023 44.1709H127.533V36.9782H124.167V44.1709H121.678V28.1255H124.167V34.765H127.533V28.1255H130.023V44.1709ZM118.266 44.5398L120.986 44.2171L116.375 37.8081L118.957 31.0764V30.9842L116.283 31.307L114.208 37.2548L113.563 31.6297L111.119 31.9064L112.687 45.1853L115.13 44.9087L114.439 38.9608L118.266 44.5398ZM110.75 44.2632C110.935 45.047 110.566 45.5542 109.551 45.7847L104.526 47.0296C103.557 47.2601 103.004 46.9835 102.82 46.1997L100.284 35.5027C100.099 34.7189 100.468 34.1656 101.436 33.9812L106.462 32.7824C107.43 32.5519 108.03 32.8285 108.214 33.6123L108.952 36.6554L106.554 37.2087L105.955 34.6267L102.82 35.3644L105.125 45.047L108.26 44.3093L107.615 41.5889L110.012 41.0356L110.75 44.2632ZM99.7305 48.505L102.036 47.6751L94.4281 36.1021L91.9844 37.0243L93.5982 50.7182V50.7643L95.9035 49.9344L95.4886 47.3524L98.3933 46.2919L99.7305 48.505ZM94.2437 39.5602L97.4712 44.8165L95.2119 45.6464L94.2437 39.5602ZM90.4168 52.3781L92.6299 51.2254L85.2988 36.9321L83.0857 38.0848L86.1288 43.9865L83.1318 45.5081L80.0887 39.6063L77.8755 40.759L85.2066 55.0523L87.4198 53.8996L84.1462 47.4907L87.1431 45.9691L90.4168 52.3781ZM138.507 45.0931C139.521 45.2314 140.075 44.9087 140.167 44.0787L141.458 33.2435C141.55 32.4135 141.135 31.9525 140.121 31.8142L134.818 31.1225C133.85 31.0303 133.297 31.3531 133.204 32.183L131.867 43.0644C131.729 43.8482 132.19 44.3093 133.158 44.4476L138.507 45.0931ZM138.968 33.3818L137.769 43.2949L134.357 42.8799L135.602 32.9668L138.968 33.3818ZM149.988 46.4302C149.803 47.2141 149.204 47.4907 148.189 47.2602L143.071 45.9692C142.103 45.7386 141.734 45.1853 141.919 44.4015L144.87 32.598L147.267 33.1974L144.409 44.5398L147.636 45.3698L150.495 34.0273L152.892 34.6267L149.988 46.4302ZM157.134 50.3955L159.163 51.1793L163.958 38.6381L161.699 37.762L159.071 44.5859C159.058 44.6481 159.043 44.7169 159.025 44.7925L159.025 44.7934L159.025 44.7936L159.025 44.7939L159.025 44.7944C158.978 44.9987 158.92 45.252 158.886 45.5542L158.195 36.4249L156.166 35.6411L151.325 48.1362L153.584 49.0122L156.304 42.05C156.317 41.9876 156.333 41.9185 156.35 41.8426L156.35 41.8425C156.397 41.638 156.455 41.3844 156.489 41.0817L157.134 50.3955ZM169.168 53.5769C168.799 54.2685 168.246 54.6835 167.508 54.8218C166.771 54.9601 165.987 54.7757 165.111 54.3146L160.685 51.917L167.047 40.1135L171.474 42.5111C172.35 42.9722 172.903 43.5255 173.226 44.2171C173.502 44.9087 173.502 45.5542 173.087 46.2919L169.168 53.5769ZM167.093 52.1014L170.736 45.3236C171.105 44.6781 170.828 44.1249 169.998 43.6638L168.384 42.7877L163.682 51.5482L165.249 52.3781C166.125 52.8392 166.771 52.7469 167.093 52.1014ZM172.857 59.1559L174.793 60.5391L176.038 58.8792L174.102 57.496L172.857 59.1559ZM185.49 70.0373L183.692 68.2852L188.718 63.1211L186.32 60.7696L181.295 65.9337L179.496 64.2277L190.701 52.7008L192.499 54.4068L187.888 59.1559L190.286 61.5074L194.896 56.7583L196.694 58.5104L185.49 70.0373ZM190.378 75.939L191.899 77.8294L200.429 66.948L198.769 64.9193L186.32 70.8672H186.274L187.796 72.7576L190.101 71.5588L192.038 73.9564L190.378 75.939ZM197.109 67.8241L193.144 72.5731L191.623 70.6827L197.109 67.8241ZM197.893 84.9761C197.202 85.391 196.602 85.2066 196.049 84.3306L193.283 79.9504C192.775 79.1204 192.868 78.4749 193.559 78.06L202.827 72.2043C203.518 71.7432 204.118 71.9738 204.671 72.8037L207.438 77.1839C207.991 78.06 207.899 78.7055 207.207 79.1204L204.533 80.7803L203.242 78.7055L205.501 77.2761L203.795 74.5558L195.357 79.8582L197.063 82.5785L199.461 81.0569L200.752 83.1318L197.893 84.9761ZM200.06 92.2149L201.213 94.6586L205.916 88.3419L213.109 88.6185L213.201 88.5724L212.048 86.1287L205.732 86.0826L210.849 83.6389L209.789 81.4258L197.663 87.1892L198.723 89.4024L204.118 86.8204L200.06 92.2149ZM204.164 103.235L203.38 100.883L210.204 98.5778L209.143 95.3963L202.32 97.7017L201.536 95.3502L216.751 90.1862L217.535 92.5377L211.264 94.6586L212.325 97.84L218.595 95.7191L219.379 98.0706L204.164 103.235ZM205.916 111.534C206.146 112.548 206.654 112.963 207.437 112.779L218.181 110.52C219.01 110.381 219.287 109.782 219.103 108.814L218.042 103.557C217.812 102.589 217.304 102.174 216.521 102.359L205.778 104.572C204.948 104.756 204.671 105.309 204.855 106.278L205.916 111.534ZM216.521 104.941L217.212 108.26L207.437 110.243L206.746 106.923L216.521 104.941ZM208.406 122.83C207.576 122.876 207.161 122.415 207.069 121.401L206.608 116.145C206.515 115.13 206.884 114.623 207.714 114.531L219.84 113.517L220.071 116.006L208.406 116.975L208.682 120.294L220.348 119.326L220.578 121.816L208.406 122.83ZM206.93 130.899L206.838 133.066L220.255 133.619L220.348 131.222L213.063 130.899C212.832 130.899 212.509 130.945 212.094 131.037L220.532 127.441L220.624 125.274L207.207 124.721L207.115 127.118L214.584 127.441C214.815 127.441 215.137 127.395 215.552 127.303L206.93 130.899ZM207.806 143.302C207.023 143.164 206.469 142.795 206.1 142.149C205.732 141.504 205.639 140.72 205.824 139.752L206.654 134.772L219.887 136.985L219.057 141.965C218.872 142.933 218.549 143.671 217.996 144.178C217.443 144.685 216.797 144.87 216.014 144.731L207.806 143.302ZM208.544 140.904L216.152 142.195C216.89 142.334 217.351 141.919 217.489 140.951L217.812 139.152L207.991 137.492L207.714 139.245C207.484 140.213 207.76 140.766 208.544 140.904ZM203.749 148.604L203.011 150.864L204.994 151.509L205.732 149.25L203.749 148.604ZM197.386 164.004L198.447 161.745L204.948 164.834L206.377 161.791L199.876 158.702L200.936 156.489L215.414 163.405L214.354 165.618L208.36 162.759L206.93 165.802L212.924 168.661L211.864 170.92L197.386 164.004ZM193.375 170.505L192.038 172.58L205.086 177.099L206.469 174.886L196.879 164.972H196.833L195.542 167.047L197.432 168.846L195.772 171.474L193.375 170.505ZM203.196 174.286L197.432 172.073L198.723 169.998L203.196 174.286ZM187.15 180.557C186.505 180.05 186.505 179.404 187.15 178.62L190.424 174.609C191.023 173.871 191.669 173.733 192.314 174.24L200.798 181.156C201.444 181.663 201.444 182.309 200.844 183.093L197.571 187.104C196.925 187.888 196.28 188.026 195.68 187.519L193.236 185.536L194.804 183.646L196.833 185.306L198.862 182.816L191.162 176.499L189.133 178.989L191.3 180.787L189.732 182.678L187.15 180.557ZM181.018 184.937L179.081 186.827L186.643 189.271L188.672 196.187L188.718 196.233L190.654 194.343L188.672 188.349L192.637 192.406L194.435 190.7L185.075 181.064L183.277 182.77L187.427 187.058L181.018 184.937ZM171.889 192.314L173.871 190.793L178.252 196.51L180.926 194.481L176.546 188.764L178.528 187.242L188.303 200.014L186.32 201.536L182.309 196.279L179.635 198.308L183.646 203.564L181.663 205.086L171.889 192.314ZM164.604 196.741C163.728 197.248 163.497 197.847 163.912 198.539L169.445 207.991C169.86 208.729 170.505 208.821 171.381 208.314L176.038 205.593C176.868 205.086 177.099 204.487 176.684 203.795L171.151 194.343C170.736 193.651 170.09 193.513 169.26 194.02L164.604 196.741ZM171.335 206.331L166.31 197.709L169.26 196.003L174.286 204.625L171.335 206.331ZM154.644 202.642C154.322 201.905 154.644 201.305 155.567 200.936L160.408 198.861C161.33 198.447 161.929 198.631 162.252 199.415L167.047 210.619L164.788 211.587L160.177 200.844L157.134 202.181L161.745 212.924L159.486 213.893L154.644 202.642ZM146.576 203.795L144.501 204.394L148.236 217.258L150.541 216.567L148.512 209.558C148.466 209.328 148.328 209.051 148.097 208.682L154.183 215.506L156.258 214.907L152.524 202.043L150.218 202.734L152.293 209.927C152.339 210.158 152.477 210.434 152.708 210.803L146.576 203.795ZM135.095 208.59C134.957 207.806 135.141 207.161 135.648 206.608C136.155 206.054 136.893 205.732 137.861 205.593L142.841 204.809L144.962 218.042L139.982 218.826C139.014 218.964 138.23 218.872 137.585 218.503C136.939 218.134 136.57 217.581 136.432 216.797L135.095 208.59ZM137.631 208.498L138.83 216.106C138.968 216.843 139.475 217.12 140.443 216.982L142.242 216.705L140.674 206.884L138.922 207.161C137.954 207.299 137.492 207.76 137.631 208.498ZM128.778 206.423L126.381 206.469L126.427 208.544L128.824 208.498L128.778 206.423ZM112.133 205.363L114.623 205.639L113.793 212.786L117.113 213.201L117.943 206.054L120.387 206.331L118.496 222.284L116.052 222.007L116.836 215.414L113.517 214.999L112.733 221.593L110.243 221.316L112.133 205.363ZM104.71 203.657L102.312 203.057L102.22 216.936L104.756 217.535L111.027 205.27V205.224L108.675 204.625L107.569 206.976L104.572 206.239L104.71 203.657ZM104.249 214.169L104.526 207.991L106.877 208.59L104.249 214.169ZM93.2293 200.982C93.506 200.199 94.1515 200.014 95.0736 200.383L99.9149 202.181C100.837 202.504 101.16 203.103 100.883 203.841L97.0101 214.077C96.7335 214.861 96.1341 215.045 95.2119 214.722L90.3707 212.924C89.4485 212.555 89.0796 212.002 89.4024 211.218L90.509 208.267L92.8144 209.143L91.8922 211.633L94.8892 212.74L98.3934 203.426L95.3964 202.32L94.382 204.948L92.0766 204.072L93.2293 200.982ZM87.1431 196.556L84.6994 195.311L84.8838 203.288L78.9821 207.391L78.936 207.484L81.3336 208.729L86.3593 204.948L83.7773 209.973L85.9904 211.126L92.1227 199.184L89.9096 198.032L87.1892 203.334L87.1431 196.556ZM77.1839 190.285L79.2587 191.669L75.2474 197.663L78.0138 199.553L82.0252 193.559L84.1 194.942L75.1091 208.267L73.0342 206.884L76.7228 201.397L73.9564 199.507L70.2678 204.994L68.193 203.611L77.1839 190.285ZM70.6828 184.753C69.945 184.107 69.2995 184.107 68.7463 184.707L61.5535 192.914C61.0002 193.559 61.1385 194.205 61.8762 194.85L65.9337 198.4C66.6714 199.046 67.3169 199.046 67.8702 198.447L75.063 190.193C75.5702 189.594 75.4779 188.948 74.7402 188.303L70.6828 184.753ZM63.7667 194.205L70.3139 186.689L72.8498 188.948L66.3487 196.418L63.7667 194.205ZM61.9223 177.237C62.5217 176.684 63.1672 176.776 63.8588 177.56L67.363 181.479C68.0546 182.217 68.0546 182.862 67.4552 183.415L58.3721 191.576L56.7122 189.732L65.4265 181.94L63.2133 179.45L54.499 187.242L52.8392 185.398L61.9223 177.237ZM58.1876 169.998L56.9427 168.2L45.9231 175.854L47.3063 177.837L53.3002 173.641C53.4847 173.502 53.7152 173.272 53.9919 172.949L49.4733 180.926L50.7182 182.724L61.7379 175.07L60.3547 173.087L54.2224 177.375C54.038 177.514 53.8074 177.744 53.5308 178.067L58.1876 169.998ZM49.9805 160.638C50.6721 160.27 51.3637 160.223 52.0092 160.546C52.6547 160.869 53.2541 161.422 53.7152 162.298L56.0667 166.771L44.2171 173.041L41.8656 168.569C41.4045 167.693 41.2662 166.909 41.3584 166.171C41.4967 165.434 41.9117 164.88 42.6033 164.511L49.9805 160.638ZM50.8565 162.99L44.0326 166.586C43.3871 166.955 43.2488 167.555 43.7099 168.384L44.5859 169.998L53.3924 165.341L52.5625 163.774C52.1014 162.898 51.5482 162.621 50.8565 162.99ZM50.0266 153.953L49.2428 151.694L47.3063 152.385L48.0901 154.644L50.0266 153.953ZM45.6925 137.815L46.1997 140.259L39.1452 141.734L39.8368 145.008L46.8913 143.533L47.3985 145.976L31.6758 149.25L31.1686 146.806L37.6698 145.469L36.9782 142.195L30.477 143.533L29.9698 141.089L45.6925 137.815ZM45.0009 130.207L44.7704 127.764L31.7219 132.052L31.9525 134.634L45.5542 136.709H45.6003L45.3698 134.265L42.7877 133.988L42.5111 130.899L45.0009 130.207ZM34.8572 133.158L40.8051 131.452L40.9895 133.85L34.8572 133.158ZM43.8021 118.496C44.632 118.542 45.0009 119.049 45.0009 120.064L44.8165 125.228C44.7704 126.196 44.3554 126.703 43.5255 126.657L32.598 126.288C31.7681 126.242 31.3992 125.781 31.3992 124.767L31.5836 119.603C31.6297 118.588 32.0447 118.081 32.8746 118.127L36.0099 118.22L35.9177 120.663L33.2896 120.571L33.1974 123.752L43.1566 124.075L43.2488 120.848L40.4363 120.755L40.5285 118.312L43.8021 118.496ZM46.0152 111.35L46.4302 108.629L39.0069 111.35L33.1974 107.062H33.1052L32.6902 109.736L37.9003 113.24L32.2752 112.41L31.9064 114.854L45.1853 116.836L45.5542 114.393L39.6524 113.517L46.0152 111.35ZM48.7817 99.8688L48.1362 102.266L41.174 100.376L40.2979 103.603L47.2602 105.494L46.6147 107.891L31.1226 103.65L31.7681 101.252L38.1309 103.004L39.0069 99.7766L32.6441 98.0245L33.2896 95.6269L48.7817 99.8688ZM51.9631 91.9383C52.332 91.0162 52.1475 90.4168 51.4098 90.094L41.2201 85.8521C40.4824 85.5294 39.883 85.8521 39.5141 86.7743L37.4854 91.7539C37.1165 92.676 37.3009 93.2754 38.0848 93.5982L48.2284 97.794C49.0122 98.1167 49.5655 97.8401 49.9344 96.9179L51.9631 91.9383ZM40.759 88.4342L49.9805 92.215L48.6895 95.3503L39.468 91.5695L40.759 88.4342ZM56.2972 81.2414C56.9888 81.6563 57.1272 82.3018 56.62 83.1779L54.038 87.7425C53.5308 88.6186 52.9314 88.8491 52.2398 88.4341L41.635 82.4402L42.8338 80.2731L53.0236 86.0365L54.6835 83.1318L44.4937 77.3683L45.6925 75.2013L56.2972 81.2414ZM61.9684 75.4318L63.2594 73.6797L52.4703 65.7031L51.041 67.6396L56.8966 71.9738C57.081 72.1121 57.3577 72.2965 57.7727 72.4348L48.7817 70.6827L47.4907 72.4348L58.2798 80.4575L59.7092 78.521L53.7152 74.0486C53.5308 73.9103 53.2541 73.7258 52.8392 73.5875L61.9684 75.4318ZM68.2391 64.6427C68.7924 65.196 69.069 65.8415 68.9768 66.5331C68.8846 67.2708 68.5157 67.9624 67.8702 68.7001L64.366 72.3887L54.6374 63.1672L58.0954 59.5247C58.787 58.8331 59.4786 58.4182 60.2164 58.2798C60.9541 58.1876 61.5996 58.3721 62.1529 58.9254L68.2391 64.6427ZM66.2564 66.2103L60.6774 60.908C60.1241 60.4008 59.5248 60.493 58.8792 61.1846L57.5882 62.5217L64.8271 69.3918L66.072 68.1007C66.7636 67.363 66.8097 66.7636 66.2564 66.2103ZM74.6019 62.5217L76.4462 61.0463L75.1552 59.4325L73.3109 60.908L74.6019 62.5217Z" fill="black"/>
</svg>
